<svg width="352" height="350" xmlns="http://www.w3.org/2000/svg" xmlns:xlink="http://www.w3.org/1999/xlink" overflow="hidden"><defs><clipPath id="clip0"><rect x="1147" y="812" width="352" height="350"/></clipPath><clipPath id="clip1"><rect x="1230" y="893" width="196" height="195"/></clipPath><clipPath id="clip2"><rect x="1230" y="893" width="196" height="195"/></clipPath><clipPath id="clip3"><rect x="1230" y="893" width="196" height="195"/></clipPath></defs><g clip-path="url(#clip0)" transform="translate(-1147 -812)"><path d="M1158.5 905 1241 822.5 1323.5 822.5 1158.5 987.5Z" stroke="#FFFFFF" stroke-width="6.875" stroke-miterlimit="8" fill="#ED7D31" fill-rule="evenodd"/><path d="M1407 822.5 1489.5 905 1489.5 987.5 1324.5 822.5Z" stroke="#FFFFFF" stroke-width="6.875" stroke-miterlimit="8" fill="#FFC000" fill-rule="evenodd"/><path d="M0 82.5 82.5 0 165 0 0 165Z" stroke="#FFFFFF" stroke-width="6.875" stroke-miterlimit="8" fill="#70AD47" fill-rule="evenodd" transform="matrix(-1.83697e-16 -1 -1 1.83697e-16 1489.5 1152.5)"/><path d="M1241 1152.5 1158.5 1070 1158.5 987.5 1323.5 1152.5Z" stroke="#FFFFFF" stroke-width="6.875" stroke-miterlimit="8" fill="#5B9BD5" fill-rule="evenodd"/><path d="M1157.5 858 1194.5 822.5 1231.5 822.5 1157.5 893.5Z" stroke="#FFFFFF" stroke-width="6.875" stroke-miterlimit="8" fill="#ED7D31" fill-rule="evenodd"/><path d="M1452 822.5 1489.5 858 1489.5 893.5 1414.5 822.5Z" stroke="#FFFFFF" stroke-width="6.875" stroke-miterlimit="8" fill="#FFC000" fill-rule="evenodd"/><path d="M0 37.5 35.5001 0 71.0002 0 0 74.9999Z" stroke="#FFFFFF" stroke-width="6.875" stroke-miterlimit="8" fill="#70AD47" fill-rule="evenodd" transform="matrix(-1.83697e-16 -1 -1 1.83697e-16 1489.5 1152.5)"/><path d="M1194.5 1152.5 1157.5 1117 1157.5 1081.5 1231.5 1152.5Z" stroke="#FFFFFF" stroke-width="6.875" stroke-miterlimit="8" fill="#5B9BD5" fill-rule="evenodd"/><g clip-path="url(#clip1)"><g clip-path="url(#clip2)"><g clip-path="url(#clip3)"><path d="M1410.97 963.586 1379.81 964.561C1377.55 962.773 1372.96 960.316 1365.06 960.498 1354.48 960.823 1349.46 968.359 1339.83 976.911 1331.91 959.097 1317.25 939.577 1304.12 929.156 1302.79 928.111 1300.86 928.345 1299.82 929.678 1299.42 930.18 1299.2 930.793 1299.17 931.431 1299.12 940.404 1300.1 949.352 1302.09 958.102 1314.28 965.455 1325.35 974.352 1331.61 983.553 1330.53 984.305 1329.37 985.056 1328.17 985.788 1316.13 968.542 1284.16 950.281 1261.94 945.67 1260.28 945.334 1258.66 946.407 1258.32 948.067 1258.2 948.674 1258.26 949.305 1258.5 949.875 1264.78 963.85 1283.28 987.209 1300.55 1000.33L1250.3 1050.34C1249.63 1051.08 1249.68 1052.22 1250.42 1052.89 1250.94 1053.36 1251.68 1053.49 1252.33 1053.22 1266.71 1045.63 1292.04 1033.7 1312.47 1031.69 1351.74 1027.83 1373.41 1004.15 1380.82 969.964L1411.05 964.581C1411.32 964.508 1411.48 964.229 1411.41 963.958 1411.35 963.755 1411.18 963.607 1410.97 963.586Z" fill="#ED7D31"/></g></g></g><path d="M1156.69 857.527 1151.76 816.956 1192.46 820.628Z" stroke="#FFFFFF" stroke-width="6.875" stroke-miterlimit="8" fill="#ED7D31" fill-rule="evenodd"/><path d="M1192.68 1152.47 1152.11 1157.4 1155.78 1116.7Z" stroke="#FFFFFF" stroke-width="6.875" stroke-miterlimit="8" fill="#5B9BD5" fill-rule="evenodd"/><path d="M1451.55 821.537 1492.12 816.609 1488.44 857.312Z" stroke="#FFFFFF" stroke-width="6.875" stroke-miterlimit="8" fill="#FFC000" fill-rule="evenodd"/><path d="M1489.36 1116.27 1494.29 1156.84 1453.59 1153.17Z" stroke="#FFFFFF" stroke-width="6.875" stroke-miterlimit="8" fill="#70AD47" fill-rule="evenodd"/></g></svg>