<svg width="339" height="337" xmlns="http://www.w3.org/2000/svg" xmlns:xlink="http://www.w3.org/1999/xlink" overflow="hidden"><defs><clipPath id="clip0"><rect x="2339" y="1814" width="339" height="337"/></clipPath><clipPath id="clip1"><rect x="2415" y="1887" width="197" height="197"/></clipPath><clipPath id="clip2"><rect x="2415" y="1887" width="197" height="197"/></clipPath><clipPath id="clip3"><rect x="2415" y="1887" width="197" height="197"/></clipPath></defs><g clip-path="url(#clip0)" transform="translate(-2339 -1814)"><path d="M2343.5 1900 2426 1817.5 2508.5 1817.5 2343.5 1982.5Z" stroke="#FFFFFF" stroke-width="6.875" stroke-miterlimit="8" fill="#FFC000" fill-rule="evenodd"/><path d="M2592 1817.5 2674.5 1900 2674.5 1982.5 2509.5 1817.5Z" stroke="#FFFFFF" stroke-width="6.875" stroke-miterlimit="8" fill="#FFC000" fill-rule="evenodd"/><path d="M0 82.5 82.5 0 165 0 0 165Z" stroke="#FFFFFF" stroke-width="6.875" stroke-miterlimit="8" fill="#FFC000" fill-rule="evenodd" transform="matrix(-1.83697e-16 -1 -1 1.83697e-16 2674.5 2147.5)"/><path d="M2426 2147.5 2343.5 2065 2343.5 1982.5 2508.5 2147.5Z" stroke="#FFFFFF" stroke-width="6.875" stroke-miterlimit="8" fill="#FFC000" fill-rule="evenodd"/><path d="M2342.5 1853 2379.5 1817.5 2416.5 1817.5 2342.5 1888.5Z" stroke="#FFFFFF" stroke-width="6.875" stroke-miterlimit="8" fill="#FFC000" fill-rule="evenodd"/><path d="M2637 1817.5 2674.5 1853 2674.5 1888.5 2599.5 1817.5Z" stroke="#FFFFFF" stroke-width="6.875" stroke-miterlimit="8" fill="#FFC000" fill-rule="evenodd"/><path d="M0 37.5 35.4999 0 70.9998 0 0 74.9999Z" stroke="#FFFFFF" stroke-width="6.875" stroke-miterlimit="8" fill="#FFC000" fill-rule="evenodd" transform="matrix(-1.83697e-16 -1 -1 1.83697e-16 2674.5 2147.5)"/><path d="M2379.5 2147.5 2342.5 2112 2342.5 2076.5 2416.5 2147.5Z" stroke="#FFFFFF" stroke-width="6.875" stroke-miterlimit="8" fill="#FFC000" fill-rule="evenodd"/><g clip-path="url(#clip1)"><g clip-path="url(#clip2)"><g clip-path="url(#clip3)"><path d="M2595.97 1958.59 2564.81 1959.56C2562.55 1957.77 2557.96 1955.32 2550.06 1955.5 2539.48 1955.82 2534.46 1963.36 2524.83 1971.91 2516.91 1954.1 2502.25 1934.58 2489.12 1924.16 2487.79 1923.11 2485.86 1923.34 2484.82 1924.68 2484.42 1925.18 2484.2 1925.79 2484.17 1926.43 2484.12 1935.4 2485.1 1944.35 2487.09 1953.1 2499.28 1960.45 2510.35 1969.35 2516.61 1978.55 2515.53 1979.3 2514.37 1980.06 2513.17 1980.79 2501.13 1963.54 2469.16 1945.28 2446.94 1940.67 2445.28 1940.33 2443.66 1941.41 2443.32 1943.07 2443.2 1943.67 2443.26 1944.3 2443.5 1944.88 2449.78 1958.85 2468.28 1982.21 2485.55 1995.33L2435.3 2045.34C2434.63 2046.08 2434.68 2047.22 2435.42 2047.89 2435.94 2048.36 2436.68 2048.49 2437.33 2048.23 2451.71 2040.63 2477.04 2028.7 2497.47 2026.69 2536.74 2022.83 2558.41 1999.15 2565.82 1964.96L2596.05 1959.58C2596.32 1959.51 2596.48 1959.23 2596.41 1958.96 2596.35 1958.76 2596.18 1958.61 2595.97 1958.59Z" fill="#ED7D31"/></g></g></g></g></svg>